<svg xmlns="http://www.w3.org/2000/svg" version="1.1" xmlns:xlink="http://www.w3.org/1999/xlink" width="286.65277623638553" height="200" viewBox="-0.9000000953674316 12.84000015258789 44.980003356933594 28.360000610351562"><path d="M9.40 30.40C9.32 30.36 9.24 30.36 9.12 30.36C8.88 30.36 8.56 30.44 8.44 30.60C7.80 31.36 7.32 31.96 7 32.56C6.36 33.64 5.72 34.80 5.12 35.88C4.56 36.84 4 37.88 3.44 38.88C3.36 39.04 3.16 39.16 3 39.32C2.96 39.32 2.92 39.36 2.88 39.40C2.88 39.36 2.84 39.32 2.84 39.32C2.76 39.12 2.68 38.92 2.60 38.72C2.04 37.20 2.48 35.80 3.24 34.20C3.72 33.20 4.20 32.20 4.72 31.20C5.16 30.32 5.64 29.40 6.04 28.52C7.72 25.08 8.64 21.16 8.88 16.60L8.88 16.60C8.88 16.36 8.88 16.12 8.88 15.88C8.92 15.32 8.92 14.72 8.84 14.16C8.80 13.76 8.44 13.12 8.04 13.08C8 13.08 8 13.04 7.96 13.04C7.60 13.04 7.08 13.44 6.88 13.76C6.44 14.44 6.08 15.20 5.80 15.96C3.96 21.52 2.68 26.52 1.88 31.24C1.56 33.16 1.12 35.16-0.40 36.72C-0.80 37.16-0.96 37.52-0.88 37.84C-0.76 38.16-0.44 38.36 0.16 38.48C0.88 38.60 1.24 38.92 1.32 39.56C1.36 39.68 1.36 39.80 1.36 39.92C1.40 40.48 1.48 41.20 2.28 41.20C2.28 41.20 2.32 41.20 2.32 41.20C2.92 41.16 3.52 40.68 4.08 40.24C4.12 40.20 4.16 40.16 4.20 40.12C4.44 39.92 4.60 39.60 4.76 39.32C4.80 39.20 4.84 39.08 4.92 38.96C5.08 38.68 5.24 38.40 5.40 38.12C5.72 37.52 6.08 36.92 6.40 36.32C6.44 36.28 6.52 36.24 6.60 36.24C6.64 36.24 6.64 36.24 6.64 36.24C6.68 36.24 6.76 36.32 6.76 36.36C6.80 36.52 6.84 36.72 6.84 36.92C6.88 37.16 6.88 37.40 6.92 37.64C7.08 38.36 7.24 39.08 7.52 39.76C7.60 39.96 7.84 40.04 8.08 40.08C8.16 40.12 8.28 40.12 8.32 40.16L8.52 40.24L8.56 40.04C8.56 39.96 8.60 39.88 8.64 39.80C8.72 39.60 8.80 39.36 8.68 39.16C7.72 37.72 8.20 36.36 8.68 34.88C8.76 34.68 8.84 34.48 8.92 34.28C9.24 33.28 9.52 32.32 9.76 31.32C9.84 31.04 9.64 30.56 9.40 30.40ZM3.68 29.68C3.76 29.32 3.80 28.96 3.88 28.60C4.04 27.60 4.24 26.60 4.52 25.64C5.28 22.92 6.16 20.20 7 17.56L7.08 17.32C7.12 17.16 7.28 17 7.44 16.84C7.44 16.80 7.44 16.80 7.44 16.80C7.48 16.96 7.52 17.16 7.56 17.32L7.56 17.60C7.56 17.60 7.56 17.60 7.56 17.64C7.36 21.32 6.40 24.88 4.52 28.84C4.36 29.16 4.20 29.48 4 29.72C3.96 29.76 3.84 29.80 3.76 29.84C3.76 29.84 3.72 29.84 3.72 29.84C3.72 29.80 3.68 29.72 3.68 29.68ZM19.76 39.08C19.72 39 19.64 38.96 19.60 38.92C19.48 38.76 19.36 38.64 19.20 38.52C18.44 37.96 18.08 37.56 18 37.16C17.92 36.76 18.12 36.24 18.68 35.44C18.68 35.40 18.72 35.36 18.76 35.28C18.84 35.20 18.92 35.08 19 34.96C19.20 34.60 19.48 34.08 19.24 33.64C19.08 33.32 18.76 33.16 18.20 33.08C17.60 33.04 17.48 32.88 17.40 32.40C17.36 32.16 17.28 31.88 17.16 31.60C16.92 31 16.60 30.40 15.88 30.40C15.60 30.40 15.32 30.48 14.88 30.64C14.44 30.80 13.96 31 13.64 31.36C12.12 33.08 11.12 34.64 10.44 36.28C10.36 36.48 10.32 36.64 10.28 36.80C10.28 36.84 10.28 36.88 10.24 36.92L10.24 36.96L10.24 37C10.20 37.92 10.48 38.72 11 39.28C11.44 39.72 12.04 40 12.68 40C13.16 40 13.60 39.88 14.08 39.64C14.68 39.32 15.28 38.92 15.84 38.40C16.08 38.16 16.24 38.12 16.32 38.12C16.44 38.12 16.60 38.32 16.68 38.48C17.12 39.12 17.64 39.84 18.64 39.84C18.68 39.84 18.68 39.84 18.72 39.84C18.96 39.84 19.20 39.76 19.36 39.68C19.48 39.64 19.56 39.60 19.60 39.60L20.12 39.44ZM16.16 34.36C16.04 36.24 14.88 37.88 13.32 38.32C13.08 38.36 12.92 38.40 12.76 38.40C12.76 38.40 12.76 38.40 12.76 38.40C12.48 38.40 12.20 38.32 12.12 37.44C12.12 37.40 12.12 37.32 12.12 37.28C12.08 37.20 12.08 37.08 12.12 37.04C12.84 35.28 13.60 33.60 15.24 32.52C15.48 32.40 15.60 32.36 15.64 32.36C15.76 32.36 15.80 32.56 15.84 32.72C15.92 33.20 16.04 33.68 16.12 34.04C16.12 34.16 16.16 34.28 16.16 34.36ZM20.44 37.60C20.56 38.40 20.48 38.76 20.64 38.92C20.96 39.36 21.40 40 21.80 40C22.52 40 22.64 39.32 22.52 38.60C22.08 36.68 22.88 35.04 23.84 33.48C24.08 33.12 24.60 32.84 24.64 32.48C24.72 31.84 24.76 30.96 24.40 30.60C23.76 30 23 30.52 22.72 31.20C21.84 33.48 21.08 35.76 20.44 37.60ZM27.96 24.96C27.80 24.04 27.84 23.20 27.56 22.52C27.44 22.12 26.80 21.92 26.40 21.64C26.20 22.04 25.76 22.52 25.84 22.88C26.04 23.68 26.48 24.44 26.92 25.20C27 25.32 27.40 25.40 27.60 25.36C27.76 25.28 27.88 25 27.96 24.96ZM39.60 13.28C39.56 13.16 39.48 13.04 39.44 12.96L39.40 12.84L39.32 12.92C39.24 12.96 39.12 13.04 39.04 13.08C38.84 13.20 38.60 13.32 38.52 13.52C37.80 15.28 37.12 16.88 36.56 18.44C35.40 21.60 34 25.36 32.68 29.04C32.56 29.48 32.40 29.80 32.20 29.80C32.08 29.80 31.88 29.72 31.68 29.56C31.28 29.28 30.88 29.12 30.44 29.12C29.96 29.12 29.44 29.28 28.88 29.64C26.04 31.36 25.04 34.28 24.32 36.84L24.28 36.88L24.32 36.92C24.36 37.08 24.40 37.24 24.44 37.44C24.52 37.80 24.64 38.20 24.76 38.60C25.12 39.64 25.56 40.12 26.20 40.12C26.56 40.12 26.92 40 27.40 39.76C28.48 39.20 29.52 38.40 30.44 37.60C30.68 37.40 30.96 37.20 31.12 37.20C31.20 37.20 31.36 37.28 31.52 37.80C31.72 38.32 31.96 38.84 32.20 39.32L32.24 39.40C32.32 39.52 32.52 39.60 32.64 39.60C32.68 39.60 32.72 39.60 32.76 39.56C32.92 39.48 33.12 39.28 33.16 39.08C33.20 38.84 33.16 38.56 33.04 38.36C31.96 36.52 32.80 34.96 33.76 33.56C34.36 32.64 34.92 31.68 35.36 30.64C36.72 27.36 37.48 23.84 38.24 20.48C38.68 18.32 39.16 16.12 39.80 13.96C39.88 13.76 39.72 13.52 39.60 13.28ZM36.12 23.88C36.04 24.24 35.96 24.56 35.88 24.92C35.44 26.80 34.96 28.76 33.80 30.40C33.88 28.72 34.52 27.16 35.12 25.64C35.36 25.04 35.60 24.40 35.84 23.76C35.84 23.76 35.96 23.68 36 23.68C36 23.68 36.04 23.64 36.04 23.64C36.04 23.68 36.04 23.68 36.08 23.68C36.08 23.76 36.16 23.84 36.12 23.88ZM31.84 31.80C31.52 34.84 30.12 37 27.60 38.40C27.28 38.60 26.96 38.68 26.68 38.68C26.68 38.68 26.68 38.68 26.68 38.68C26.40 38.68 26.20 38.56 26.04 38.40C25.84 38.12 25.76 37.72 25.84 37.24C26.32 34.44 27.60 32.24 29.60 30.80C29.72 30.68 29.96 30.64 30.24 30.64C30.52 30.64 30.88 30.72 31.12 30.84C31.40 30.96 31.60 31.32 31.72 31.60C31.76 31.68 31.80 31.76 31.84 31.80ZM43.72 39.08C43.68 39 43.60 38.96 43.56 38.92C43.44 38.76 43.32 38.64 43.16 38.52C42.40 37.96 42.04 37.56 41.96 37.16C41.88 36.76 42.08 36.24 42.64 35.44C42.64 35.40 42.68 35.36 42.72 35.28C42.80 35.20 42.88 35.08 42.96 34.96C43.16 34.60 43.44 34.08 43.20 33.64C43.04 33.32 42.72 33.16 42.16 33.08C41.56 33.04 41.44 32.88 41.36 32.40C41.32 32.16 41.24 31.88 41.12 31.60C40.88 31 40.56 30.40 39.84 30.40C39.56 30.40 39.28 30.48 38.84 30.64C38.40 30.80 37.92 31 37.60 31.36C36.08 33.08 35.08 34.64 34.40 36.28C34.32 36.48 34.28 36.64 34.24 36.80C34.24 36.84 34.24 36.88 34.20 36.92L34.20 36.96L34.20 37C34.16 37.92 34.44 38.72 34.96 39.28C35.40 39.72 36 40 36.64 40C37.12 40 37.56 39.88 38.04 39.64C38.64 39.32 39.24 38.92 39.80 38.40C40.04 38.16 40.20 38.12 40.28 38.12C40.40 38.12 40.56 38.32 40.64 38.48C41.08 39.12 41.60 39.84 42.60 39.84C42.64 39.84 42.64 39.84 42.68 39.84C42.92 39.84 43.16 39.76 43.32 39.68C43.44 39.64 43.52 39.60 43.56 39.60L44.08 39.44ZM40.12 34.36C40 36.24 38.84 37.88 37.28 38.32C37.04 38.36 36.88 38.40 36.72 38.40C36.72 38.40 36.72 38.40 36.72 38.40C36.44 38.40 36.16 38.32 36.08 37.44C36.08 37.40 36.08 37.32 36.08 37.28C36.04 37.20 36.04 37.08 36.08 37.04C36.80 35.28 37.56 33.60 39.20 32.52C39.44 32.40 39.56 32.36 39.60 32.36C39.72 32.36 39.76 32.56 39.80 32.72C39.88 33.20 40 33.68 40.08 34.04C40.08 34.16 40.12 34.28 40.12 34.36Z" fill="black"></path></svg>